<svg width="30" height="9" viewBox="0 0 30 9" fill="none" xmlns="http://www.w3.org/2000/svg">
<path fill-rule="evenodd" clip-rule="evenodd" d="M0 3.0127L2.49963 6.16588L0 8.23719V3.0127Z" fill="#C12116"/>
<path fill-rule="evenodd" clip-rule="evenodd" d="M1.00684 8.2375L2.88768 6.66406L4.18768 8.2375H1.00684Z" fill="#C12116"/>
<path fill-rule="evenodd" clip-rule="evenodd" d="M0 1.32561L0.652311 2.15076L3.33437 5.5022L4.20346 4.81013C4.20346 4.81013 3.48196 3.96071 2.9975 3.01285C2.05034 1.15966 2.72091 0.00585938 2.72091 0.00585938H0V1.32561Z" fill="#C12116"/>
<path fill-rule="evenodd" clip-rule="evenodd" d="M3.71777 6.02015L4.60288 5.28906C4.60288 5.28906 5.44822 6.40183 6.42841 6.66447C7.71289 7.00864 8.2816 6.1666 8.2816 6.1666V8.2379H5.46032L6.09649 7.68787C6.09649 7.68787 5.76458 7.90915 4.95282 7.34687C4.4737 7.01501 3.71777 6.02015 3.71777 6.02015Z" fill="#C12116"/>
<path fill-rule="evenodd" clip-rule="evenodd" d="M3.79811 0C3.79811 0 3.51575 0.384648 3.71674 1.32579C3.93157 2.33174 4.78596 3.39643 4.78397 3.3726C4.78397 3.3726 4.8389 2.31541 5.45929 1.69501C6.78167 0.372635 8.28057 1.15983 8.28057 1.15983V0.00603536L3.79811 0Z" fill="#C12116"/>
<path fill-rule="evenodd" clip-rule="evenodd" d="M8.28133 2.5542C8.28133 2.5542 7.44506 1.83789 6.71801 1.83789C5.78794 1.83789 5.28027 2.64085 5.28027 3.22331C5.28027 4.07171 5.6875 4.54312 6.09623 4.95185C6.68361 5.53923 7.39819 6.17273 8.28133 5.66285C8.28133 4.69784 8.28133 2.5542 8.28133 2.5542Z" fill="#C12116"/>
<path fill-rule="evenodd" clip-rule="evenodd" d="M17.8047 0.0859375H19.7781C19.7781 0.0859375 21.5263 2.73293 22.3854 3.82655C23.2446 4.92018 24.1693 6.16585 24.1693 6.16585C24.1693 6.16585 24.1693 2.55354 24.1693 0.678729C24.1693 0.441744 23.5471 0.0859375 23.5471 0.0859375H25.8227C25.8227 0.0859375 25.076 0.392712 25.076 0.678729C25.076 3.01266 25.076 8.6612 25.076 8.6612C25.076 8.6612 24.3596 8.2639 23.5471 7.31981C22.6342 6.25906 19.387 1.97655 19.387 1.97655C19.387 1.97655 19.387 6.0194 19.387 7.52339C19.387 7.80746 20.0092 8.23716 20.0092 8.23716H17.8047C17.8047 8.23716 18.4092 7.80399 18.4092 7.52339C18.4092 5.50202 18.4092 2.55354 18.4092 0.678729C18.4092 0.42683 17.8047 0.0859375 17.8047 0.0859375Z" fill="#005E6A"/>
<path fill-rule="evenodd" clip-rule="evenodd" d="M27.0967 0.0859375H29.6294C29.6294 0.0859375 28.9493 0.408077 28.9493 0.678729C28.9493 2.55354 28.9493 5.66219 28.9493 7.52339C28.9493 7.81915 29.6294 8.23716 29.6294 8.23716H27.0967C27.0967 8.23716 27.7299 7.80963 27.7299 7.52339C27.7299 5.28832 27.7299 2.55354 27.7299 0.678729C27.7299 0.41852 27.0967 0.0859375 27.0967 0.0859375Z" fill="#005E6A"/>
<path fill-rule="evenodd" clip-rule="evenodd" d="M10.3535 0.0859375C10.3535 0.0859375 11.0101 0.413341 11.0101 0.678729C11.0101 2.55354 11.0101 5.28832 11.0101 7.52339C11.0101 7.81435 10.3535 8.23716 10.3535 8.23716C10.3535 8.23716 13.6339 8.23716 14.1057 8.23716C14.3402 8.23716 16.9667 7.80767 16.9667 5.78273C16.9667 3.75779 14.9265 3.56818 14.9265 3.56818C14.9265 3.56818 16.1694 3.22265 16.1694 1.83723C16.1694 0.3439 14.3402 0.0859375 14.1057 0.0859375C13.6183 0.0859375 10.3535 0.0859375 10.3535 0.0859375ZM12.3469 3.43399V0.885667C12.3469 0.885667 13.4345 0.885667 13.8712 0.885667C14.1057 0.885667 14.9265 1.15948 14.9265 2.17534C14.9265 3.01266 14.1057 3.43399 13.8712 3.43399C13.3395 3.43399 12.3469 3.43399 12.3469 3.43399ZM12.3469 4.10235C12.3469 4.10235 13.8712 4.10235 14.1057 4.10235C14.3402 4.10235 15.7238 4.46174 15.7238 5.66219C15.7238 6.88609 14.3402 7.31981 14.1057 7.31981C13.8712 7.31981 12.3469 7.31981 12.3469 7.31981V4.10235Z" fill="#005E6A"/>
</svg>
