<svg width="32" height="32" viewBox="0 0 32 32" fill="none" xmlns="http://www.w3.org/2000/svg">
<path d="M10.667 10.6667V9.33333C10.667 7.91885 11.2289 6.56229 12.2291 5.5621C13.2293 4.5619 14.5858 4 16.0003 4C17.4148 4 18.7714 4.5619 19.7716 5.5621C20.7718 6.56229 21.3337 7.91885 21.3337 9.33333V10.6667" stroke="#0A0D12" stroke-width="2" stroke-linecap="round"/>
<path fill-rule="evenodd" clip-rule="evenodd" d="M4.78133 10.1148C4 10.8962 4 12.1522 4 14.6668V18.6668C4 23.6948 4 26.2095 5.56267 27.7708C7.12533 29.3322 9.63867 29.3335 14.6667 29.3335H17.3333C22.3613 29.3335 24.876 29.3335 26.4373 27.7708C27.9987 26.2082 28 23.6948 28 18.6668V14.6668C28 12.1522 28 10.8962 27.2187 10.1148C26.4373 9.3335 25.1813 9.3335 22.6667 9.3335H9.33333C6.81867 9.3335 5.56267 9.3335 4.78133 10.1148ZM13.3333 16.0002C13.3333 15.6465 13.1929 15.3074 12.9428 15.0574C12.6928 14.8073 12.3536 14.6668 12 14.6668C11.6464 14.6668 11.3072 14.8073 11.0572 15.0574C10.8071 15.3074 10.6667 15.6465 10.6667 16.0002V18.6668C10.6667 19.0205 10.8071 19.3596 11.0572 19.6096C11.3072 19.8597 11.6464 20.0002 12 20.0002C12.3536 20.0002 12.6928 19.8597 12.9428 19.6096C13.1929 19.3596 13.3333 19.0205 13.3333 18.6668V16.0002ZM21.3333 16.0002C21.3333 15.6465 21.1929 15.3074 20.9428 15.0574C20.6928 14.8073 20.3536 14.6668 20 14.6668C19.6464 14.6668 19.3072 14.8073 19.0572 15.0574C18.8071 15.3074 18.6667 15.6465 18.6667 16.0002V18.6668C18.6667 19.0205 18.8071 19.3596 19.0572 19.6096C19.3072 19.8597 19.6464 20.0002 20 20.0002C20.3536 20.0002 20.6928 19.8597 20.9428 19.6096C21.1929 19.3596 21.3333 19.0205 21.3333 18.6668V16.0002Z" fill="#0A0D12"/>
</svg>
